<svg xmlns="http://www.w3.org/2000/svg" xmlns:sketch="http://www.bohemiancoding.com/sketch/ns" width="100.0px" height="100px" viewBox="0 0 512 512"><title>Features</title><path d="M56.446 480l7.554-46.311-32-32.798 44.223-6.757 19.777-42.135 19.777 42.135 44.223 6.757-32 32.797 7.554 46.311-39.554-21.865-39.554 21.865zm0-160l7.554-46.311-32-32.798 44.223-6.757 19.777-42.135 19.777 42.135 44.223 6.757-32 32.797 7.554 46.311-39.554-21.865-39.554 21.865zm0-160l7.554-46.311-32-32.798 44.223-6.757 19.777-42.135 19.777 42.135 44.223 6.757-32 32.797 7.554 46.311-39.554-21.865-39.554 21.865zm103.554-48c0 8.837 7.17 16 16.006 16h287.988c8.84 0 16.006-7.162 16.006-16 0-8.837-7.17-16-16.006-16h-287.988c-8.84 0-16.006 7.162-16.006 16zm0 160c0 8.837 7.17 16 16.006 16h287.988c8.84 0 16.006-7.162 16.006-16 0-8.837-7.17-16-16.006-16h-287.988c-8.84 0-16.006 7.162-16.006 16zm0 160c0 8.837 7.17 16 16.006 16h287.988c8.84 0 16.006-7.162 16.006-16 0-8.837-7.17-16-16.006-16h-287.988c-8.84 0-16.006 7.162-16.006 16z" fill="#000000" sketch:type="MSShapeGroup" fill-rule="evenodd"/></svg>